<mxfile host="app.diagrams.net" agent="Mozilla/5.0 (Macintosh; Intel Mac OS X 10_15_7) AppleWebKit/605.1.15 (KHTML, like Gecko) Version/18.3 Safari/605.1.15" version="26.0.10">
  <diagram name="Seite-1" id="bLBaSlyp3kBdeuQgJi-p">
    <mxGraphModel dx="1042" dy="588" grid="1" gridSize="10" guides="1" tooltips="1" connect="1" arrows="1" fold="1" page="1" pageScale="1" pageWidth="827" pageHeight="1169" math="0" shadow="0">
      <root>
        <mxCell id="0" />
        <mxCell id="1" parent="0" />
        <mxCell id="fj-bvyKBdd74U44pKcJo-9" style="edgeStyle=orthogonalEdgeStyle;rounded=0;orthogonalLoop=1;jettySize=auto;html=1;exitX=1;exitY=0.5;exitDx=0;exitDy=0;entryX=0;entryY=0.5;entryDx=0;entryDy=0;endArrow=none;startFill=0;" edge="1" parent="1" source="fj-bvyKBdd74U44pKcJo-1" target="fj-bvyKBdd74U44pKcJo-8">
          <mxGeometry relative="1" as="geometry" />
        </mxCell>
        <mxCell id="fj-bvyKBdd74U44pKcJo-12" value="1" style="edgeLabel;html=1;align=center;verticalAlign=middle;resizable=0;points=[];" vertex="1" connectable="0" parent="fj-bvyKBdd74U44pKcJo-9">
          <mxGeometry x="-0.8951" relative="1" as="geometry">
            <mxPoint as="offset" />
          </mxGeometry>
        </mxCell>
        <mxCell id="fj-bvyKBdd74U44pKcJo-13" style="rounded=0;orthogonalLoop=1;jettySize=auto;html=1;exitX=0.5;exitY=0;exitDx=0;exitDy=0;entryX=0.5;entryY=1;entryDx=0;entryDy=0;endArrow=none;startFill=0;" edge="1" parent="1" source="fj-bvyKBdd74U44pKcJo-1" target="fj-bvyKBdd74U44pKcJo-3">
          <mxGeometry relative="1" as="geometry" />
        </mxCell>
        <mxCell id="fj-bvyKBdd74U44pKcJo-17" style="edgeStyle=none;shape=connector;rounded=0;orthogonalLoop=1;jettySize=auto;html=1;exitX=0.5;exitY=1;exitDx=0;exitDy=0;entryX=0.5;entryY=0;entryDx=0;entryDy=0;strokeColor=default;align=center;verticalAlign=middle;fontFamily=Helvetica;fontSize=11;fontColor=default;labelBackgroundColor=default;startFill=0;endArrow=none;" edge="1" parent="1" source="fj-bvyKBdd74U44pKcJo-1" target="fj-bvyKBdd74U44pKcJo-6">
          <mxGeometry relative="1" as="geometry" />
        </mxCell>
        <mxCell id="fj-bvyKBdd74U44pKcJo-1" value="User" style="rounded=0;whiteSpace=wrap;html=1;" vertex="1" parent="1">
          <mxGeometry x="160" y="170" width="120" height="60" as="geometry" />
        </mxCell>
        <mxCell id="fj-bvyKBdd74U44pKcJo-2" value="&lt;b&gt;&lt;u&gt;user_id&lt;/u&gt;&lt;/b&gt;" style="ellipse;whiteSpace=wrap;html=1;" vertex="1" parent="1">
          <mxGeometry y="160" width="120" height="80" as="geometry" />
        </mxCell>
        <mxCell id="fj-bvyKBdd74U44pKcJo-3" value="first_name" style="ellipse;whiteSpace=wrap;html=1;" vertex="1" parent="1">
          <mxGeometry x="140" y="40" width="120" height="80" as="geometry" />
        </mxCell>
        <mxCell id="fj-bvyKBdd74U44pKcJo-4" value="pwd_hash" style="ellipse;whiteSpace=wrap;html=1;" vertex="1" parent="1">
          <mxGeometry x="10" y="70" width="120" height="80" as="geometry" />
        </mxCell>
        <mxCell id="fj-bvyKBdd74U44pKcJo-5" value="type" style="ellipse;whiteSpace=wrap;html=1;" vertex="1" parent="1">
          <mxGeometry y="250" width="120" height="80" as="geometry" />
        </mxCell>
        <mxCell id="fj-bvyKBdd74U44pKcJo-6" value="last_name" style="ellipse;whiteSpace=wrap;html=1;" vertex="1" parent="1">
          <mxGeometry x="280" y="40" width="120" height="80" as="geometry" />
        </mxCell>
        <mxCell id="fj-bvyKBdd74U44pKcJo-23" style="edgeStyle=none;shape=connector;rounded=0;orthogonalLoop=1;jettySize=auto;html=1;exitX=0.5;exitY=0;exitDx=0;exitDy=0;entryX=0.5;entryY=1;entryDx=0;entryDy=0;strokeColor=default;align=center;verticalAlign=middle;fontFamily=Helvetica;fontSize=11;fontColor=default;labelBackgroundColor=default;startFill=0;endArrow=none;" edge="1" parent="1" source="fj-bvyKBdd74U44pKcJo-7" target="fj-bvyKBdd74U44pKcJo-19">
          <mxGeometry relative="1" as="geometry" />
        </mxCell>
        <mxCell id="fj-bvyKBdd74U44pKcJo-24" style="edgeStyle=none;shape=connector;rounded=0;orthogonalLoop=1;jettySize=auto;html=1;exitX=1;exitY=0;exitDx=0;exitDy=0;strokeColor=default;align=center;verticalAlign=middle;fontFamily=Helvetica;fontSize=11;fontColor=default;labelBackgroundColor=default;startFill=0;endArrow=none;" edge="1" parent="1" source="fj-bvyKBdd74U44pKcJo-7" target="fj-bvyKBdd74U44pKcJo-22">
          <mxGeometry relative="1" as="geometry" />
        </mxCell>
        <mxCell id="fj-bvyKBdd74U44pKcJo-25" style="edgeStyle=none;shape=connector;rounded=0;orthogonalLoop=1;jettySize=auto;html=1;exitX=1;exitY=0.5;exitDx=0;exitDy=0;entryX=0;entryY=0.5;entryDx=0;entryDy=0;strokeColor=default;align=center;verticalAlign=middle;fontFamily=Helvetica;fontSize=11;fontColor=default;labelBackgroundColor=default;startFill=0;endArrow=none;" edge="1" parent="1" source="fj-bvyKBdd74U44pKcJo-7" target="fj-bvyKBdd74U44pKcJo-21">
          <mxGeometry relative="1" as="geometry" />
        </mxCell>
        <mxCell id="fj-bvyKBdd74U44pKcJo-26" style="edgeStyle=none;shape=connector;rounded=0;orthogonalLoop=1;jettySize=auto;html=1;exitX=0;exitY=0;exitDx=0;exitDy=0;entryX=1;entryY=1;entryDx=0;entryDy=0;strokeColor=default;align=center;verticalAlign=middle;fontFamily=Helvetica;fontSize=11;fontColor=default;labelBackgroundColor=default;startFill=0;endArrow=none;" edge="1" parent="1" source="fj-bvyKBdd74U44pKcJo-7" target="fj-bvyKBdd74U44pKcJo-20">
          <mxGeometry relative="1" as="geometry" />
        </mxCell>
        <mxCell id="fj-bvyKBdd74U44pKcJo-29" style="edgeStyle=none;shape=connector;rounded=0;orthogonalLoop=1;jettySize=auto;html=1;exitX=0.5;exitY=1;exitDx=0;exitDy=0;entryX=0.5;entryY=0;entryDx=0;entryDy=0;strokeColor=default;align=center;verticalAlign=middle;fontFamily=Helvetica;fontSize=11;fontColor=default;labelBackgroundColor=default;startFill=0;endArrow=none;" edge="1" parent="1" source="fj-bvyKBdd74U44pKcJo-7" target="fj-bvyKBdd74U44pKcJo-28">
          <mxGeometry relative="1" as="geometry" />
        </mxCell>
        <mxCell id="fj-bvyKBdd74U44pKcJo-31" value="n" style="edgeLabel;html=1;align=center;verticalAlign=middle;resizable=0;points=[];fontFamily=Helvetica;fontSize=11;fontColor=default;labelBackgroundColor=default;" vertex="1" connectable="0" parent="fj-bvyKBdd74U44pKcJo-29">
          <mxGeometry x="-0.807" y="-1" relative="1" as="geometry">
            <mxPoint as="offset" />
          </mxGeometry>
        </mxCell>
        <mxCell id="fj-bvyKBdd74U44pKcJo-7" value="Submission" style="rounded=0;whiteSpace=wrap;html=1;" vertex="1" parent="1">
          <mxGeometry x="560" y="170" width="120" height="60" as="geometry" />
        </mxCell>
        <mxCell id="fj-bvyKBdd74U44pKcJo-10" style="edgeStyle=orthogonalEdgeStyle;rounded=0;orthogonalLoop=1;jettySize=auto;html=1;exitX=1;exitY=0.5;exitDx=0;exitDy=0;entryX=0;entryY=0.5;entryDx=0;entryDy=0;endArrow=none;startFill=0;" edge="1" parent="1" source="fj-bvyKBdd74U44pKcJo-8" target="fj-bvyKBdd74U44pKcJo-7">
          <mxGeometry relative="1" as="geometry" />
        </mxCell>
        <mxCell id="fj-bvyKBdd74U44pKcJo-11" value="n" style="edgeLabel;html=1;align=center;verticalAlign=middle;resizable=0;points=[];" vertex="1" connectable="0" parent="fj-bvyKBdd74U44pKcJo-10">
          <mxGeometry x="0.8385" relative="1" as="geometry">
            <mxPoint as="offset" />
          </mxGeometry>
        </mxCell>
        <mxCell id="fj-bvyKBdd74U44pKcJo-8" value="submits" style="rhombus;whiteSpace=wrap;html=1;" vertex="1" parent="1">
          <mxGeometry x="374" y="160" width="80" height="80" as="geometry" />
        </mxCell>
        <mxCell id="fj-bvyKBdd74U44pKcJo-14" style="edgeStyle=none;shape=connector;rounded=0;orthogonalLoop=1;jettySize=auto;html=1;exitX=0;exitY=0;exitDx=0;exitDy=0;entryX=0.942;entryY=0.719;entryDx=0;entryDy=0;entryPerimeter=0;strokeColor=default;align=center;verticalAlign=middle;fontFamily=Helvetica;fontSize=11;fontColor=default;labelBackgroundColor=default;startFill=0;endArrow=none;" edge="1" parent="1" source="fj-bvyKBdd74U44pKcJo-1" target="fj-bvyKBdd74U44pKcJo-4">
          <mxGeometry relative="1" as="geometry" />
        </mxCell>
        <mxCell id="fj-bvyKBdd74U44pKcJo-15" style="edgeStyle=none;shape=connector;rounded=0;orthogonalLoop=1;jettySize=auto;html=1;exitX=0;exitY=0.5;exitDx=0;exitDy=0;entryX=1;entryY=0.5;entryDx=0;entryDy=0;strokeColor=default;align=center;verticalAlign=middle;fontFamily=Helvetica;fontSize=11;fontColor=default;labelBackgroundColor=default;startFill=0;endArrow=none;" edge="1" parent="1" source="fj-bvyKBdd74U44pKcJo-1" target="fj-bvyKBdd74U44pKcJo-2">
          <mxGeometry relative="1" as="geometry" />
        </mxCell>
        <mxCell id="fj-bvyKBdd74U44pKcJo-16" style="edgeStyle=none;shape=connector;rounded=0;orthogonalLoop=1;jettySize=auto;html=1;exitX=0;exitY=1;exitDx=0;exitDy=0;entryX=1;entryY=0;entryDx=0;entryDy=0;strokeColor=default;align=center;verticalAlign=middle;fontFamily=Helvetica;fontSize=11;fontColor=default;labelBackgroundColor=default;startFill=0;endArrow=none;" edge="1" parent="1" source="fj-bvyKBdd74U44pKcJo-1" target="fj-bvyKBdd74U44pKcJo-5">
          <mxGeometry relative="1" as="geometry" />
        </mxCell>
        <mxCell id="fj-bvyKBdd74U44pKcJo-19" value="is_accepted" style="ellipse;whiteSpace=wrap;html=1;fontFamily=Helvetica;fontSize=11;fontColor=default;labelBackgroundColor=default;" vertex="1" parent="1">
          <mxGeometry x="560" y="50" width="120" height="80" as="geometry" />
        </mxCell>
        <mxCell id="fj-bvyKBdd74U44pKcJo-20" value="file_path" style="ellipse;whiteSpace=wrap;html=1;fontFamily=Helvetica;fontSize=11;fontColor=default;labelBackgroundColor=default;" vertex="1" parent="1">
          <mxGeometry x="430" y="80" width="120" height="80" as="geometry" />
        </mxCell>
        <mxCell id="fj-bvyKBdd74U44pKcJo-21" value="date" style="ellipse;whiteSpace=wrap;html=1;fontFamily=Helvetica;fontSize=11;fontColor=default;labelBackgroundColor=default;" vertex="1" parent="1">
          <mxGeometry x="710" y="160" width="120" height="80" as="geometry" />
        </mxCell>
        <mxCell id="fj-bvyKBdd74U44pKcJo-22" value="&lt;b&gt;&lt;u&gt;submission_id&lt;/u&gt;&lt;/b&gt;" style="ellipse;whiteSpace=wrap;html=1;fontFamily=Helvetica;fontSize=11;fontColor=default;labelBackgroundColor=default;" vertex="1" parent="1">
          <mxGeometry x="700" y="60" width="120" height="80" as="geometry" />
        </mxCell>
        <mxCell id="fj-bvyKBdd74U44pKcJo-41" style="edgeStyle=none;shape=connector;rounded=0;orthogonalLoop=1;jettySize=auto;html=1;exitX=1;exitY=0;exitDx=0;exitDy=0;entryX=0;entryY=1;entryDx=0;entryDy=0;strokeColor=default;align=center;verticalAlign=middle;fontFamily=Helvetica;fontSize=11;fontColor=default;labelBackgroundColor=default;startFill=0;endArrow=none;" edge="1" parent="1" source="fj-bvyKBdd74U44pKcJo-27" target="fj-bvyKBdd74U44pKcJo-34">
          <mxGeometry relative="1" as="geometry" />
        </mxCell>
        <mxCell id="fj-bvyKBdd74U44pKcJo-27" value="Question" style="rounded=0;whiteSpace=wrap;html=1;fontFamily=Helvetica;fontSize=11;fontColor=default;labelBackgroundColor=default;" vertex="1" parent="1">
          <mxGeometry x="560" y="600" width="120" height="60" as="geometry" />
        </mxCell>
        <mxCell id="fj-bvyKBdd74U44pKcJo-30" style="edgeStyle=none;shape=connector;rounded=0;orthogonalLoop=1;jettySize=auto;html=1;exitX=0.5;exitY=1;exitDx=0;exitDy=0;entryX=0.5;entryY=0;entryDx=0;entryDy=0;strokeColor=default;align=center;verticalAlign=middle;fontFamily=Helvetica;fontSize=11;fontColor=default;labelBackgroundColor=default;startFill=0;endArrow=none;" edge="1" parent="1" source="fj-bvyKBdd74U44pKcJo-28" target="fj-bvyKBdd74U44pKcJo-27">
          <mxGeometry relative="1" as="geometry" />
        </mxCell>
        <mxCell id="fj-bvyKBdd74U44pKcJo-32" value="1" style="edgeLabel;html=1;align=center;verticalAlign=middle;resizable=0;points=[];fontFamily=Helvetica;fontSize=11;fontColor=default;labelBackgroundColor=default;" vertex="1" connectable="0" parent="fj-bvyKBdd74U44pKcJo-30">
          <mxGeometry x="0.7488" relative="1" as="geometry">
            <mxPoint as="offset" />
          </mxGeometry>
        </mxCell>
        <mxCell id="fj-bvyKBdd74U44pKcJo-28" value="belongs to" style="rhombus;whiteSpace=wrap;html=1;fontFamily=Helvetica;fontSize=11;fontColor=default;labelBackgroundColor=default;" vertex="1" parent="1">
          <mxGeometry x="580" y="370" width="80" height="80" as="geometry" />
        </mxCell>
        <mxCell id="fj-bvyKBdd74U44pKcJo-45" style="edgeStyle=none;shape=connector;rounded=0;orthogonalLoop=1;jettySize=auto;html=1;exitX=0.5;exitY=0;exitDx=0;exitDy=0;strokeColor=default;align=center;verticalAlign=middle;fontFamily=Helvetica;fontSize=11;fontColor=default;labelBackgroundColor=default;startFill=0;endArrow=none;" edge="1" parent="1" source="fj-bvyKBdd74U44pKcJo-33">
          <mxGeometry relative="1" as="geometry">
            <mxPoint x="680" y="660" as="targetPoint" />
          </mxGeometry>
        </mxCell>
        <mxCell id="fj-bvyKBdd74U44pKcJo-33" value="output" style="ellipse;whiteSpace=wrap;html=1;fontFamily=Helvetica;fontSize=11;fontColor=default;labelBackgroundColor=default;" vertex="1" parent="1">
          <mxGeometry x="640" y="720" width="120" height="80" as="geometry" />
        </mxCell>
        <mxCell id="fj-bvyKBdd74U44pKcJo-34" value="&lt;b&gt;&lt;u&gt;question_id&lt;/u&gt;&lt;/b&gt;" style="ellipse;whiteSpace=wrap;html=1;fontFamily=Helvetica;fontSize=11;fontColor=default;labelBackgroundColor=default;" vertex="1" parent="1">
          <mxGeometry x="760" y="420" width="120" height="80" as="geometry" />
        </mxCell>
        <mxCell id="fj-bvyKBdd74U44pKcJo-43" style="edgeStyle=none;shape=connector;rounded=0;orthogonalLoop=1;jettySize=auto;html=1;exitX=0;exitY=0.5;exitDx=0;exitDy=0;entryX=1;entryY=0.5;entryDx=0;entryDy=0;strokeColor=default;align=center;verticalAlign=middle;fontFamily=Helvetica;fontSize=11;fontColor=default;labelBackgroundColor=default;startFill=0;endArrow=none;" edge="1" parent="1" source="fj-bvyKBdd74U44pKcJo-35" target="fj-bvyKBdd74U44pKcJo-27">
          <mxGeometry relative="1" as="geometry" />
        </mxCell>
        <mxCell id="fj-bvyKBdd74U44pKcJo-35" value="content" style="ellipse;whiteSpace=wrap;html=1;fontFamily=Helvetica;fontSize=11;fontColor=default;labelBackgroundColor=default;" vertex="1" parent="1">
          <mxGeometry x="770" y="620" width="120" height="80" as="geometry" />
        </mxCell>
        <mxCell id="fj-bvyKBdd74U44pKcJo-44" style="edgeStyle=none;shape=connector;rounded=0;orthogonalLoop=1;jettySize=auto;html=1;exitX=0;exitY=0;exitDx=0;exitDy=0;entryX=1;entryY=1;entryDx=0;entryDy=0;strokeColor=default;align=center;verticalAlign=middle;fontFamily=Helvetica;fontSize=11;fontColor=default;labelBackgroundColor=default;startFill=0;endArrow=none;" edge="1" parent="1" source="fj-bvyKBdd74U44pKcJo-36" target="fj-bvyKBdd74U44pKcJo-27">
          <mxGeometry relative="1" as="geometry" />
        </mxCell>
        <mxCell id="fj-bvyKBdd74U44pKcJo-36" value="input" style="ellipse;whiteSpace=wrap;html=1;fontFamily=Helvetica;fontSize=11;fontColor=default;labelBackgroundColor=default;" vertex="1" parent="1">
          <mxGeometry x="770" y="720" width="120" height="80" as="geometry" />
        </mxCell>
        <mxCell id="fj-bvyKBdd74U44pKcJo-46" style="edgeStyle=none;shape=connector;rounded=0;orthogonalLoop=1;jettySize=auto;html=1;exitX=0.5;exitY=0;exitDx=0;exitDy=0;entryX=0.5;entryY=1;entryDx=0;entryDy=0;strokeColor=default;align=center;verticalAlign=middle;fontFamily=Helvetica;fontSize=11;fontColor=default;labelBackgroundColor=default;startFill=0;endArrow=none;" edge="1" parent="1" source="fj-bvyKBdd74U44pKcJo-38" target="fj-bvyKBdd74U44pKcJo-27">
          <mxGeometry relative="1" as="geometry" />
        </mxCell>
        <mxCell id="fj-bvyKBdd74U44pKcJo-38" value="difficulty" style="ellipse;whiteSpace=wrap;html=1;fontFamily=Helvetica;fontSize=11;fontColor=default;labelBackgroundColor=default;" vertex="1" parent="1">
          <mxGeometry x="510" y="720" width="120" height="80" as="geometry" />
        </mxCell>
        <mxCell id="fj-bvyKBdd74U44pKcJo-42" style="edgeStyle=none;shape=connector;rounded=0;orthogonalLoop=1;jettySize=auto;html=1;exitX=0;exitY=0.5;exitDx=0;exitDy=0;entryX=1;entryY=0;entryDx=0;entryDy=0;strokeColor=default;align=center;verticalAlign=middle;fontFamily=Helvetica;fontSize=11;fontColor=default;labelBackgroundColor=default;startFill=0;endArrow=none;" edge="1" parent="1" source="fj-bvyKBdd74U44pKcJo-39" target="fj-bvyKBdd74U44pKcJo-27">
          <mxGeometry relative="1" as="geometry" />
        </mxCell>
        <mxCell id="fj-bvyKBdd74U44pKcJo-39" value="name" style="ellipse;whiteSpace=wrap;html=1;fontFamily=Helvetica;fontSize=11;fontColor=default;labelBackgroundColor=default;" vertex="1" parent="1">
          <mxGeometry x="770" y="520" width="120" height="80" as="geometry" />
        </mxCell>
        <mxCell id="fj-bvyKBdd74U44pKcJo-47" style="edgeStyle=none;shape=connector;rounded=0;orthogonalLoop=1;jettySize=auto;html=1;exitX=1;exitY=0;exitDx=0;exitDy=0;entryX=0;entryY=1;entryDx=0;entryDy=0;strokeColor=default;align=center;verticalAlign=middle;fontFamily=Helvetica;fontSize=11;fontColor=default;labelBackgroundColor=default;startFill=0;endArrow=none;" edge="1" parent="1" source="fj-bvyKBdd74U44pKcJo-40" target="fj-bvyKBdd74U44pKcJo-27">
          <mxGeometry relative="1" as="geometry" />
        </mxCell>
        <mxCell id="fj-bvyKBdd74U44pKcJo-40" value="due date" style="ellipse;whiteSpace=wrap;html=1;fontFamily=Helvetica;fontSize=11;fontColor=default;labelBackgroundColor=default;" vertex="1" parent="1">
          <mxGeometry x="374" y="720" width="120" height="80" as="geometry" />
        </mxCell>
        <mxCell id="fj-bvyKBdd74U44pKcJo-65" style="edgeStyle=none;shape=connector;rounded=0;orthogonalLoop=1;jettySize=auto;html=1;exitX=0.5;exitY=1;exitDx=0;exitDy=0;entryX=0.5;entryY=0;entryDx=0;entryDy=0;strokeColor=default;align=center;verticalAlign=middle;fontFamily=Helvetica;fontSize=11;fontColor=default;labelBackgroundColor=default;startFill=0;endArrow=none;" edge="1" parent="1" source="fj-bvyKBdd74U44pKcJo-48" target="fj-bvyKBdd74U44pKcJo-64">
          <mxGeometry relative="1" as="geometry" />
        </mxCell>
        <mxCell id="fj-bvyKBdd74U44pKcJo-48" value="Classroom" style="rounded=0;whiteSpace=wrap;html=1;fontFamily=Helvetica;fontSize=11;fontColor=default;labelBackgroundColor=default;" vertex="1" parent="1">
          <mxGeometry x="160" y="600" width="120" height="60" as="geometry" />
        </mxCell>
        <mxCell id="fj-bvyKBdd74U44pKcJo-51" style="edgeStyle=none;shape=connector;rounded=0;orthogonalLoop=1;jettySize=auto;html=1;exitX=0.5;exitY=0;exitDx=0;exitDy=0;entryX=0.75;entryY=1;entryDx=0;entryDy=0;strokeColor=default;align=center;verticalAlign=middle;fontFamily=Helvetica;fontSize=11;fontColor=default;labelBackgroundColor=default;startFill=0;endArrow=none;" edge="1" parent="1" source="fj-bvyKBdd74U44pKcJo-49" target="fj-bvyKBdd74U44pKcJo-1">
          <mxGeometry relative="1" as="geometry" />
        </mxCell>
        <mxCell id="fj-bvyKBdd74U44pKcJo-56" value="1" style="edgeLabel;html=1;align=center;verticalAlign=middle;resizable=0;points=[];fontFamily=Helvetica;fontSize=11;fontColor=default;labelBackgroundColor=default;" vertex="1" connectable="0" parent="fj-bvyKBdd74U44pKcJo-51">
          <mxGeometry x="0.9164" relative="1" as="geometry">
            <mxPoint as="offset" />
          </mxGeometry>
        </mxCell>
        <mxCell id="fj-bvyKBdd74U44pKcJo-54" style="edgeStyle=none;shape=connector;rounded=0;orthogonalLoop=1;jettySize=auto;html=1;exitX=0.5;exitY=1;exitDx=0;exitDy=0;entryX=0.75;entryY=0;entryDx=0;entryDy=0;strokeColor=default;align=center;verticalAlign=middle;fontFamily=Helvetica;fontSize=11;fontColor=default;labelBackgroundColor=default;startFill=0;endArrow=none;" edge="1" parent="1" source="fj-bvyKBdd74U44pKcJo-49" target="fj-bvyKBdd74U44pKcJo-48">
          <mxGeometry relative="1" as="geometry" />
        </mxCell>
        <mxCell id="fj-bvyKBdd74U44pKcJo-55" value="n" style="edgeLabel;html=1;align=center;verticalAlign=middle;resizable=0;points=[];fontFamily=Helvetica;fontSize=11;fontColor=default;labelBackgroundColor=default;" vertex="1" connectable="0" parent="fj-bvyKBdd74U44pKcJo-54">
          <mxGeometry x="0.7029" relative="1" as="geometry">
            <mxPoint as="offset" />
          </mxGeometry>
        </mxCell>
        <mxCell id="fj-bvyKBdd74U44pKcJo-49" value="is teacher" style="rhombus;whiteSpace=wrap;html=1;fontFamily=Helvetica;fontSize=11;fontColor=default;labelBackgroundColor=default;" vertex="1" parent="1">
          <mxGeometry x="240" y="400" width="80" height="80" as="geometry" />
        </mxCell>
        <mxCell id="fj-bvyKBdd74U44pKcJo-52" style="edgeStyle=none;shape=connector;rounded=0;orthogonalLoop=1;jettySize=auto;html=1;exitX=0.5;exitY=0;exitDx=0;exitDy=0;entryX=0.25;entryY=1;entryDx=0;entryDy=0;strokeColor=default;align=center;verticalAlign=middle;fontFamily=Helvetica;fontSize=11;fontColor=default;labelBackgroundColor=default;startFill=0;endArrow=none;" edge="1" parent="1" source="fj-bvyKBdd74U44pKcJo-50" target="fj-bvyKBdd74U44pKcJo-1">
          <mxGeometry relative="1" as="geometry" />
        </mxCell>
        <mxCell id="fj-bvyKBdd74U44pKcJo-57" value="n" style="edgeLabel;html=1;align=center;verticalAlign=middle;resizable=0;points=[];fontFamily=Helvetica;fontSize=11;fontColor=default;labelBackgroundColor=default;" vertex="1" connectable="0" parent="fj-bvyKBdd74U44pKcJo-52">
          <mxGeometry x="0.9081" y="-1" relative="1" as="geometry">
            <mxPoint as="offset" />
          </mxGeometry>
        </mxCell>
        <mxCell id="fj-bvyKBdd74U44pKcJo-53" style="edgeStyle=none;shape=connector;rounded=0;orthogonalLoop=1;jettySize=auto;html=1;exitX=0.5;exitY=1;exitDx=0;exitDy=0;entryX=0.25;entryY=0;entryDx=0;entryDy=0;strokeColor=default;align=center;verticalAlign=middle;fontFamily=Helvetica;fontSize=11;fontColor=default;labelBackgroundColor=default;startFill=0;endArrow=none;" edge="1" parent="1" source="fj-bvyKBdd74U44pKcJo-50" target="fj-bvyKBdd74U44pKcJo-48">
          <mxGeometry relative="1" as="geometry" />
        </mxCell>
        <mxCell id="fj-bvyKBdd74U44pKcJo-58" value="m" style="edgeLabel;html=1;align=center;verticalAlign=middle;resizable=0;points=[];fontFamily=Helvetica;fontSize=11;fontColor=default;labelBackgroundColor=default;" vertex="1" connectable="0" parent="fj-bvyKBdd74U44pKcJo-53">
          <mxGeometry x="0.7712" y="1" relative="1" as="geometry">
            <mxPoint as="offset" />
          </mxGeometry>
        </mxCell>
        <mxCell id="fj-bvyKBdd74U44pKcJo-50" value="is student" style="rhombus;whiteSpace=wrap;html=1;fontFamily=Helvetica;fontSize=11;fontColor=default;labelBackgroundColor=default;" vertex="1" parent="1">
          <mxGeometry x="120" y="400" width="80" height="80" as="geometry" />
        </mxCell>
        <mxCell id="fj-bvyKBdd74U44pKcJo-60" style="edgeStyle=none;shape=connector;rounded=0;orthogonalLoop=1;jettySize=auto;html=1;exitX=0;exitY=0.5;exitDx=0;exitDy=0;entryX=1;entryY=0.5;entryDx=0;entryDy=0;strokeColor=default;align=center;verticalAlign=middle;fontFamily=Helvetica;fontSize=11;fontColor=default;labelBackgroundColor=default;startFill=0;endArrow=none;" edge="1" parent="1" source="fj-bvyKBdd74U44pKcJo-59" target="fj-bvyKBdd74U44pKcJo-48">
          <mxGeometry relative="1" as="geometry" />
        </mxCell>
        <mxCell id="fj-bvyKBdd74U44pKcJo-62" value="n" style="edgeLabel;html=1;align=center;verticalAlign=middle;resizable=0;points=[];fontFamily=Helvetica;fontSize=11;fontColor=default;labelBackgroundColor=default;" vertex="1" connectable="0" parent="fj-bvyKBdd74U44pKcJo-60">
          <mxGeometry x="0.8652" relative="1" as="geometry">
            <mxPoint as="offset" />
          </mxGeometry>
        </mxCell>
        <mxCell id="fj-bvyKBdd74U44pKcJo-61" style="edgeStyle=none;shape=connector;rounded=0;orthogonalLoop=1;jettySize=auto;html=1;exitX=1;exitY=0.5;exitDx=0;exitDy=0;entryX=0;entryY=0.5;entryDx=0;entryDy=0;strokeColor=default;align=center;verticalAlign=middle;fontFamily=Helvetica;fontSize=11;fontColor=default;labelBackgroundColor=default;startFill=0;endArrow=none;" edge="1" parent="1" source="fj-bvyKBdd74U44pKcJo-59" target="fj-bvyKBdd74U44pKcJo-27">
          <mxGeometry relative="1" as="geometry" />
        </mxCell>
        <mxCell id="fj-bvyKBdd74U44pKcJo-63" value="m" style="edgeLabel;html=1;align=center;verticalAlign=middle;resizable=0;points=[];fontFamily=Helvetica;fontSize=11;fontColor=default;labelBackgroundColor=default;" vertex="1" connectable="0" parent="fj-bvyKBdd74U44pKcJo-61">
          <mxGeometry x="0.7601" relative="1" as="geometry">
            <mxPoint as="offset" />
          </mxGeometry>
        </mxCell>
        <mxCell id="fj-bvyKBdd74U44pKcJo-59" value="assigned to" style="rhombus;whiteSpace=wrap;html=1;fontFamily=Helvetica;fontSize=11;fontColor=default;labelBackgroundColor=default;" vertex="1" parent="1">
          <mxGeometry x="374" y="590" width="80" height="80" as="geometry" />
        </mxCell>
        <mxCell id="fj-bvyKBdd74U44pKcJo-64" value="name" style="ellipse;whiteSpace=wrap;html=1;fontFamily=Helvetica;fontSize=11;fontColor=default;labelBackgroundColor=default;" vertex="1" parent="1">
          <mxGeometry x="160" y="720" width="120" height="80" as="geometry" />
        </mxCell>
        <mxCell id="fj-bvyKBdd74U44pKcJo-67" style="edgeStyle=none;shape=connector;rounded=0;orthogonalLoop=1;jettySize=auto;html=1;exitX=1;exitY=0;exitDx=0;exitDy=0;entryX=0;entryY=1;entryDx=0;entryDy=0;strokeColor=default;align=center;verticalAlign=middle;fontFamily=Helvetica;fontSize=11;fontColor=default;labelBackgroundColor=default;startFill=0;endArrow=none;" edge="1" parent="1" source="fj-bvyKBdd74U44pKcJo-66" target="fj-bvyKBdd74U44pKcJo-48">
          <mxGeometry relative="1" as="geometry" />
        </mxCell>
        <mxCell id="fj-bvyKBdd74U44pKcJo-66" value="&lt;b&gt;&lt;u&gt;class_id&lt;/u&gt;&lt;/b&gt;" style="ellipse;whiteSpace=wrap;html=1;fontFamily=Helvetica;fontSize=11;fontColor=default;labelBackgroundColor=default;" vertex="1" parent="1">
          <mxGeometry y="690" width="120" height="80" as="geometry" />
        </mxCell>
      </root>
    </mxGraphModel>
  </diagram>
</mxfile>
